# xmcd
#
# Track frame offsets: 
#        150
#        11205
#        21592
#        34767
#        49037
#        62310
#        75847
#        87235
#        101432
#        113160
#        123860
#        136117
#        149100
#        160692
#        170902
#        181157
#        191300
#        202792
#        212360
#        222267
#        233057
#        245422
#        255195
#        268667
#        279095
#
# Disc length: 3878 seconds
#
# Revision: 2
# Processed by: cddbd v1.5.2PL0 Copyright (c) Steve Scherf et al.
# Submitted via: ExactAudioCopy v1.1
#
DISCID=470f2419
DTITLE=Various Artist - A Taste Of Doo Wop - Volume 3
DYEAR=1993
DGENRE=R&B
TTITLE0=The Rhythm Aces - I Wonder Why (alt) (mono)
TTITLE1=The Rhythm Aces - That's My Sugar (mono)
TTITLE2=The Dells - I Can't Help Myself (mono)
TTITLE3=Danny Cobb with The Magnificents - I Pray For Your Love (mono)
TTITLE4=Sonny Til's Orioles - I Just Got Lucky (mono)
TTITLE5=Sonny Til's Orioles - Sugar Girl (mono)
TTITLE6=The Delegates - I'm Gonna Be Glad (mono)
TTITLE7=The Delegates - The Convention (mono)
TTITLE8=The Dells - Time Makes You Change (alt) (mono)
TTITLE9=The Dells - Dance Dance Dance (mono)
TTITLE10=The Dells - You're Still In My Heart (mono)
TTITLE11=The El Dorados - A Rose For My Darling (mono)
TTITLE12=The Dells - Time Makes You Change (mono)
TTITLE13=The Lyrics (The Falcons) - Come On Home (mono)
TTITLE14=The Falcons (Vee-Jay) - My Only Love (mono)
TTITLE15=The Lyrics (The Falcons) - Stop (Why Don't You Stop) (mono)
TTITLE16=The Dells - The Springer (At The Bandstand) (mono)
TTITLE17=The Magnificents - Let's Do The Cha Cha (mono)
TTITLE18=The Magnificents - Rosebud (mono)
TTITLE19=The Magnificents - Ozeta (mono)
TTITLE20=The El Cincos - You Have To Go (mono)
TTITLE21=The Dells - My Dreams (mono)
TTITLE22=Hank Ballard and The Midnighters - I'll Pray For You (mono)
TTITLE23=The Dells - I'm Calling (mono)
TTITLE24=Preston Jackson and The Rhythm Aces - Be Mine (mono)
EXTD=
EXTT0=
EXTT1=
EXTT2=
EXTT3=
EXTT4=
EXTT5=
EXTT6=
EXTT7=
EXTT8=
EXTT9=
EXTT10=
EXTT11=
EXTT12=
EXTT13=
EXTT14=
EXTT15=
EXTT16=
EXTT17=
EXTT18=
EXTT19=
EXTT20=
EXTT21=
EXTT22=
EXTT23=
EXTT24=
PLAYORDER=
